<svg xmlns="http://www.w3.org/2000/svg" width="37" height="36" viewBox="0 0 37 36" fill="none"><g clip-path="url(#clip0_174_981)"><path d="M30.167 6.33301L23.804 12.696" stroke="black" stroke-width="1.5" stroke-linecap="round" stroke-linejoin="round"></path><path d="M30.167 29.667L23.804 23.304" stroke="black" stroke-width="1.5" stroke-linecap="round" stroke-linejoin="round"></path><path d="M6.83301 29.667L13.196 23.304" stroke="black" stroke-width="1.5" stroke-linecap="round" stroke-linejoin="round"></path><path d="M6.83301 6.33301L13.196 12.696" stroke="black" stroke-width="1.5" stroke-linecap="round" stroke-linejoin="round"></path><path d="M30.1669 29.6671C36.6104 23.2236 36.6104 12.7764 30.1669 6.33285C23.7233 -0.110738 13.2761 -0.110738 6.83255 6.33285C0.388966 12.7764 0.388966 23.2236 6.83255 29.6671C13.2761 36.1107 23.7233 36.1107 30.1669 29.6671Z" stroke="black" stroke-width="1.5" stroke-linecap="round" stroke-linejoin="round"></path><path d="M23.8029 23.3032C26.7318 20.3743 26.7318 15.6257 23.8029 12.6968C20.874 9.76785 16.1253 9.76785 13.1964 12.6968C10.2675 15.6257 10.2675 20.3743 13.1964 23.3032C16.1253 26.2322 20.874 26.2322 23.8029 23.3032Z" stroke="black" stroke-width="1.5" stroke-linecap="round" stroke-linejoin="round"></path></g><defs><clipPath id="clip0_174_981"><rect width="36" height="36" fill="white" transform="translate(0.5)"></rect></clipPath></defs></svg>