<svg xmlns="http://www.w3.org/2000/svg" width="33" height="32" viewBox="0 0 33 32" fill="none"><path d="M8.50004 4H4.50004C3.02671 4 1.83337 5.19333 1.83337 6.66667C1.83337 8.14 3.02671 9.33333 4.50004 9.33333" stroke="#000000" stroke-width="1.5" stroke-linecap="round" stroke-linejoin="round"></path><path d="M8.5 9.33325V1.33325H27.1667V9.33325" stroke="#000000" stroke-width="1.5" stroke-linecap="round" stroke-linejoin="round"></path><path d="M31.1667 9.33317H4.50004C3.02671 9.33317 1.83337 8.13984 1.83337 6.6665V26.6665C1.83337 28.8758 3.62404 30.6665 5.83337 30.6665H31.1667V9.33317Z" stroke="#000000" stroke-width="1.5" stroke-linecap="round" stroke-linejoin="round"></path><path d="M23.1667 22.6666C24.6394 22.6666 25.8333 21.4727 25.8333 19.9999C25.8333 18.5272 24.6394 17.3333 23.1667 17.3333C21.6939 17.3333 20.5 18.5272 20.5 19.9999C20.5 21.4727 21.6939 22.6666 23.1667 22.6666Z" stroke="#000000" stroke-width="1.5" stroke-linecap="round" stroke-linejoin="round"></path></svg>