<svg xmlns="http://www.w3.org/2000/svg" width="36" height="36" viewBox="0 0 36 36" fill="none"><path d="M33.6677 7.11781L27.2392 4.54638C27.0857 4.48487 26.9144 4.48487 26.7609 4.54638L20.3323 7.11781C20.2131 7.16557 20.111 7.24791 20.039 7.35424C19.9671 7.46056 19.9286 7.586 19.9286 7.71438V14.359C19.9319 15.5798 20.2496 16.7793 20.8511 17.8418C21.4526 18.9042 22.3176 19.7939 23.3627 20.425L26.6696 22.4088C26.7694 22.4686 26.8836 22.5002 27 22.5002C27.1164 22.5002 27.2306 22.4686 27.3304 22.4088L30.2143 20.6782V27.8782C30.214 28.1577 30.1028 28.4257 29.9051 28.6234C29.7075 28.821 29.4395 28.9322 29.16 28.9325H4.26859C3.98908 28.9322 3.72112 28.821 3.52347 28.6234C3.32583 28.4257 3.21464 28.1577 3.2143 27.8782V13.5001H18C18.1705 13.5001 18.334 13.4324 18.4546 13.3118C18.5751 13.1912 18.6429 13.0277 18.6429 12.8572C18.6429 12.6867 18.5751 12.5232 18.4546 12.4027C18.334 12.2821 18.1705 12.2144 18 12.2144H10.6072H3.2143V10.6972C3.21464 10.4177 3.32583 10.1498 3.52347 9.95212C3.72112 9.75448 3.98908 9.64329 4.26859 9.64295H18C18.1705 9.64295 18.334 9.57522 18.4546 9.45466C18.5751 9.3341 18.6429 9.17059 18.6429 9.00009C18.6429 8.8296 18.5751 8.66609 18.4546 8.54553C18.334 8.42497 18.1705 8.35724 18 8.35724H4.26859C3.64809 8.35758 3.0531 8.60422 2.61434 9.04298C2.17557 9.48175 1.92893 10.0767 1.92859 10.6972V27.8744C1.92893 28.4949 2.17557 29.0899 2.61434 29.5286C3.0531 29.9674 3.64809 30.214 4.26859 30.2144H29.16C29.7805 30.214 30.3755 29.9674 30.8143 29.5286C31.253 29.0899 31.4997 28.4949 31.5 27.8744V19.8001C32.3008 19.1361 32.9462 18.3045 33.3905 17.3639C33.8348 16.4233 34.0672 15.3966 34.0714 14.3564V7.71438C34.0714 7.586 34.033 7.46056 33.961 7.35424C33.889 7.24791 33.7869 7.16557 33.6677 7.11781ZM32.7857 14.359C32.7831 15.3579 32.5231 16.3394 32.0308 17.2087C31.5385 18.078 30.8305 18.8057 29.9752 19.3218L27 21.1077L24.0249 19.3218C23.1695 18.8057 22.4615 18.078 21.9692 17.2087C21.4769 16.3394 21.2169 15.3579 21.2143 14.359V8.14895L27 5.83467L32.7857 8.14895V14.359Z" fill="#000000"></path><path d="M24.8838 12.5127C24.8241 12.453 24.7532 12.4055 24.6752 12.3732C24.5972 12.3408 24.5135 12.3241 24.4291 12.324C24.3446 12.324 24.2609 12.3405 24.1829 12.3728C24.1048 12.4051 24.0339 12.4524 23.9741 12.5121C23.9143 12.5718 23.8669 12.6427 23.8345 12.7207C23.8022 12.7987 23.7855 12.8823 23.7854 12.9668C23.7853 13.0513 23.8019 13.1349 23.8342 13.213C23.8665 13.291 23.9138 13.362 23.9735 13.4217L25.6886 15.1356C25.8092 15.2561 25.9727 15.3238 26.1431 15.3238C26.3136 15.3238 26.4771 15.2561 26.5976 15.1356L30.0266 11.7066C30.1472 11.5859 30.2148 11.4222 30.2147 11.2516C30.2146 11.0811 30.1467 10.9175 30.026 10.797C29.9053 10.6764 29.7416 10.6088 29.571 10.6089C29.4004 10.609 29.2369 10.6769 29.1163 10.7976L26.1425 13.7727L24.8838 12.5127Z" fill="#000000"></path><path d="M6.42862 25.0715C6.25813 25.0715 6.09461 25.1393 5.97406 25.2598C5.8535 25.3804 5.78577 25.5439 5.78577 25.7144C5.78577 25.8849 5.8535 26.0484 5.97406 26.169C6.09461 26.2895 6.25813 26.3572 6.42862 26.3572H11.5715C11.742 26.3572 11.9055 26.2895 12.0261 26.169C12.1466 26.0484 12.2143 25.8849 12.2143 25.7144C12.2143 25.5439 12.1466 25.3804 12.0261 25.2598C11.9055 25.1393 11.742 25.0715 11.5715 25.0715H6.42862Z" fill="#000000"></path></svg>